<svg width="2196" height="367" viewBox="0 0 2196 367" fill="none" xmlns="http://www.w3.org/2000/svg">
<path d="M623.456 234.216C623.456 217.136 626.84 201.774 633.607 188.132C640.375 174.382 649.882 163.854 662.128 156.55C674.374 149.138 688.446 145.432 704.345 145.432C727.87 145.432 746.938 153.005 761.547 168.151C776.264 183.298 784.213 203.386 785.395 228.415L785.556 237.6C785.556 254.787 782.226 270.148 775.565 283.684C769.013 297.219 759.56 307.692 747.206 315.104C734.96 322.517 720.78 326.223 704.667 326.223C680.067 326.223 660.355 318.059 645.531 301.73C630.814 285.295 623.456 263.435 623.456 236.149V234.216ZM662.611 237.6C662.611 255.539 666.317 269.611 673.729 279.816C681.142 289.914 691.454 294.963 704.667 294.963C717.88 294.963 728.139 289.807 735.443 279.494C742.855 269.182 746.562 254.089 746.562 234.216C746.562 216.599 742.748 202.634 735.121 192.321C727.602 182.009 717.343 176.853 704.345 176.853C691.562 176.853 681.41 181.955 673.891 192.16C666.371 202.258 662.611 217.404 662.611 237.6ZM922.841 323C921.122 319.67 919.618 314.245 918.329 306.726C905.868 319.724 890.614 326.223 872.567 326.223C855.058 326.223 840.771 321.228 829.706 311.237C818.642 301.247 813.109 288.894 813.109 274.177C813.109 255.593 819.984 241.359 833.734 231.477C847.592 221.486 867.357 216.491 893.031 216.491H917.04V205.051C917.04 196.027 914.516 188.83 909.467 183.459C904.418 177.98 896.737 175.241 886.425 175.241C877.509 175.241 870.204 177.497 864.511 182.009C858.817 186.413 855.971 192.053 855.971 198.928H816.815C816.815 189.367 819.984 180.451 826.322 172.18C832.66 163.801 841.254 157.248 852.104 152.521C863.061 147.795 875.253 145.432 888.681 145.432C909.091 145.432 925.365 150.588 937.504 160.9C949.643 171.105 955.873 185.5 956.195 204.084V282.717C956.195 298.4 958.397 310.915 962.802 320.261V323H922.841ZM879.818 294.802C887.553 294.802 894.804 292.922 901.571 289.162C908.446 285.402 913.603 280.354 917.04 274.016V241.145H895.932C881.43 241.145 870.526 243.669 863.222 248.718C855.917 253.767 852.265 260.91 852.265 270.148C852.265 277.668 854.735 283.684 859.677 288.195C864.726 292.6 871.439 294.802 879.818 294.802ZM1059.8 206.018L1093 148.654H1136.5L1083.17 234.538L1138.28 323H1095.09L1060.29 263.381L1025.64 323H982.138L1037.25 234.538L984.071 148.654H1027.25L1059.8 206.018ZM1267.34 323C1265.62 319.67 1264.12 314.245 1262.83 306.726C1250.37 319.724 1235.12 326.223 1217.07 326.223C1199.56 326.223 1185.27 321.228 1174.21 311.237C1163.14 301.247 1157.61 288.894 1157.61 274.177C1157.61 255.593 1164.49 241.359 1178.24 231.477C1192.09 221.486 1211.86 216.491 1237.53 216.491H1261.54V205.051C1261.54 196.027 1259.02 188.83 1253.97 183.459C1248.92 177.98 1241.24 175.241 1230.93 175.241C1222.01 175.241 1214.71 177.497 1209.01 182.009C1203.32 186.413 1200.47 192.053 1200.47 198.928H1161.32C1161.32 189.367 1164.49 180.451 1170.82 172.18C1177.16 163.801 1185.76 157.248 1196.61 152.521C1207.56 147.795 1219.75 145.432 1233.18 145.432C1253.59 145.432 1269.87 150.588 1282.01 160.9C1294.14 171.105 1300.38 185.5 1300.7 204.084V282.717C1300.7 298.4 1302.9 310.915 1307.3 320.261V323H1267.34ZM1224.32 294.802C1232.05 294.802 1239.31 292.922 1246.07 289.162C1252.95 285.402 1258.1 280.354 1261.54 274.016V241.145H1240.43C1225.93 241.145 1215.03 243.669 1207.72 248.718C1200.42 253.767 1196.77 260.91 1196.77 270.148C1196.77 277.668 1199.24 283.684 1204.18 288.195C1209.23 292.6 1215.94 294.802 1224.32 294.802ZM1413.33 294.963C1423.1 294.963 1431.21 292.116 1437.66 286.423C1444.11 280.729 1447.54 273.693 1447.97 265.314H1484.87C1484.44 276.164 1481.06 286.315 1474.72 295.769C1468.38 305.114 1459.79 312.526 1448.94 318.005C1438.09 323.483 1426.38 326.223 1413.81 326.223C1389.43 326.223 1370.09 318.327 1355.8 302.536C1341.52 286.745 1334.37 264.938 1334.37 237.116V233.088C1334.37 206.555 1341.46 185.339 1355.64 169.44C1369.82 153.435 1389.16 145.432 1413.65 145.432C1434.38 145.432 1451.25 151.501 1464.25 163.64C1477.35 175.671 1484.23 191.516 1484.87 211.174H1447.97C1447.54 201.184 1444.11 192.966 1437.66 186.521C1431.32 180.075 1423.21 176.853 1413.33 176.853C1400.65 176.853 1390.88 181.472 1384 190.71C1377.13 199.841 1373.64 213.752 1373.53 232.443V238.728C1373.53 257.634 1376.91 271.76 1383.68 281.105C1390.56 290.344 1400.44 294.963 1413.33 294.963ZM1618.61 323C1616.89 319.67 1615.39 314.245 1614.1 306.726C1601.64 319.724 1586.39 326.223 1568.34 326.223C1550.83 326.223 1536.54 321.228 1525.48 311.237C1514.41 301.247 1508.88 288.894 1508.88 274.177C1508.88 255.593 1515.76 241.359 1529.51 231.477C1543.36 221.486 1563.13 216.491 1588.8 216.491H1612.81V205.051C1612.81 196.027 1610.29 188.83 1605.24 183.459C1600.19 177.98 1592.51 175.241 1582.2 175.241C1573.28 175.241 1565.98 177.497 1560.28 182.009C1554.59 186.413 1551.74 192.053 1551.74 198.928H1512.59C1512.59 189.367 1515.76 180.451 1522.09 172.18C1528.43 163.801 1537.03 157.248 1547.88 152.521C1558.83 147.795 1571.02 145.432 1584.45 145.432C1604.86 145.432 1621.14 150.588 1633.28 160.9C1645.41 171.105 1651.64 185.5 1651.97 204.084V282.717C1651.97 298.4 1654.17 310.915 1658.57 320.261V323H1618.61ZM1575.59 294.802C1583.32 294.802 1590.58 292.922 1597.34 289.162C1604.22 285.402 1609.37 280.354 1612.81 274.016V241.145H1591.7C1577.2 241.145 1566.3 243.669 1558.99 248.718C1551.69 253.767 1548.04 260.91 1548.04 270.148C1548.04 277.668 1550.51 283.684 1555.45 288.195C1560.5 292.6 1567.21 294.802 1575.59 294.802ZM1685.64 234.216C1685.64 217.136 1689.03 201.774 1695.79 188.132C1702.56 174.382 1712.07 163.854 1724.32 156.55C1736.56 149.138 1750.63 145.432 1766.53 145.432C1790.06 145.432 1809.12 153.005 1823.73 168.151C1838.45 183.298 1846.4 203.386 1847.58 228.415L1847.74 237.6C1847.74 254.787 1844.41 270.148 1837.75 283.684C1831.2 297.219 1821.75 307.692 1809.39 315.104C1797.15 322.517 1782.97 326.223 1766.85 326.223C1742.25 326.223 1722.54 318.059 1707.72 301.73C1693 285.295 1685.64 263.435 1685.64 236.149V234.216ZM1724.8 237.6C1724.8 255.539 1728.5 269.611 1735.92 279.816C1743.33 289.914 1753.64 294.963 1766.85 294.963C1780.07 294.963 1790.33 289.807 1797.63 279.494C1805.04 269.182 1808.75 254.089 1808.75 234.216C1808.75 216.599 1804.94 202.634 1797.31 192.321C1789.79 182.009 1779.53 176.853 1766.53 176.853C1753.75 176.853 1743.6 181.955 1736.08 192.16C1728.56 202.258 1724.8 217.404 1724.8 237.6ZM1978.58 275.627C1978.58 268.645 1975.68 263.327 1969.88 259.675C1964.19 256.022 1954.68 252.8 1941.36 250.007C1928.04 247.214 1916.92 243.669 1908.01 239.372C1888.46 229.919 1878.68 216.223 1878.68 198.283C1878.68 183.244 1885.02 170.676 1897.69 160.578C1910.37 150.48 1926.48 145.432 1946.03 145.432C1966.87 145.432 1983.69 150.588 1996.47 160.9C2009.36 171.213 2015.8 184.587 2015.8 201.022H1976.65C1976.65 193.503 1973.86 187.272 1968.27 182.331C1962.68 177.282 1955.27 174.758 1946.03 174.758C1937.44 174.758 1930.4 176.745 1924.93 180.72C1919.55 184.694 1916.87 190.012 1916.87 196.672C1916.87 202.688 1919.39 207.36 1924.44 210.69C1929.49 214.021 1939.7 217.404 1955.06 220.842C1970.42 224.172 1982.45 228.2 1991.15 232.927C1999.96 237.546 2006.46 243.132 2010.65 249.685C2014.95 256.237 2017.09 264.187 2017.09 273.532C2017.09 289.216 2010.59 301.945 1997.6 311.721C1984.6 321.389 1967.57 326.223 1946.52 326.223C1932.23 326.223 1919.5 323.645 1908.33 318.488C1897.16 313.332 1888.46 306.242 1882.23 297.219C1876 288.195 1872.88 278.474 1872.88 268.054H1910.91C1911.44 277.292 1914.94 284.436 1921.38 289.484C1927.83 294.426 1936.37 296.896 1947 296.896C1957.31 296.896 1965.16 294.963 1970.53 291.096C1975.9 287.121 1978.58 281.965 1978.58 275.627Z" fill="white"/>
<rect width="139.032" height="22.1763" rx="11.0881" transform="matrix(0.902492 0.430707 -0.412461 0.910975 9.14697 188.861)" fill="white"/>
<rect x="229.544" y="346.265" width="69.1183" height="24.5728" rx="12.2864" transform="rotate(-90 229.544 346.265)" fill="white"/>
<rect x="168.953" y="325.529" width="80.7873" height="20.7355" rx="10.3677" fill="white"/>
<rect x="7.37854" y="325.529" width="67.3228" height="20.7355" rx="10.3677" fill="white"/>
<rect width="146.353" height="22.5827" rx="11.2914" transform="matrix(0.965305 0.261124 -0.248581 0.968611 114.479 241.221)" fill="white"/>
<ellipse cx="125.193" cy="328.985" rx="37.0275" ry="38.0151" fill="white"/>
<rect width="164.71" height="24.7653" rx="12.3827" transform="matrix(-0.790855 0.612003 0.580988 0.813912 541.577 138.909)" fill="white"/>
<rect width="77.7725" height="27.1672" rx="13.5836" transform="matrix(0 -1 -1 0 312.379 342.724)" fill="white"/>
<rect width="89.3169" height="23.3317" rx="11.6659" transform="matrix(-1 0 0 1 379.366 319.392)" fill="white"/>
<rect width="74.4307" height="23.3317" rx="11.6659" transform="matrix(-1 0 0 1 558 319.392)" fill="white"/>
<rect width="162.002" height="25.3831" rx="12.6915" transform="matrix(-0.964129 0.265436 0.244506 0.969648 439.593 224.528)" fill="white"/>
<ellipse rx="40.9369" ry="42.7749" transform="matrix(-1 0 0 1 427.746 323.281)" fill="white"/>
<rect width="126.499" height="25.424" rx="12.712" transform="matrix(-1 0 -0.00844635 0.999964 551.493 228.763)" fill="white"/>
<rect width="107.637" height="24.7637" rx="12.3818" transform="matrix(0 -1 -0.99996 -0.00890286 550.527 255.179)" fill="white"/>
<rect width="118.291" height="21.8507" rx="10.9253" transform="matrix(0.499141 0.866521 -0.854779 0.518992 165.36 96.4781)" fill="white"/>
<rect width="97.9506" height="22.123" rx="11.0615" transform="matrix(0.848044 0.529926 -0.509957 0.8602 160.038 97.4385)" fill="white"/>
<rect width="128.797" height="25.3336" rx="12.6668" transform="matrix(-0.493852 0.869546 -0.858007 -0.513638 425.185 74.1011)" fill="white"/>
<rect width="107.032" height="25.141" rx="12.5705" transform="matrix(0.847685 -0.5305 0.510525 0.859863 322.255 117.064)" fill="white"/>
<rect width="84.5506" height="25.0699" rx="12.5349" transform="matrix(-0.00130252 0.999999 -0.999999 -0.00137293 348.995 49.0901)" fill="white"/>
<rect width="81.7231" height="21.9803" rx="10.9902" transform="matrix(0.684985 -0.728557 0.71029 0.703909 276.67 107.063)" fill="white"/>
<path d="M247.292 4.27381C253.376 1.91345 260.136 4.96474 262.39 11.089L297.261 105.832C299.515 111.957 296.41 118.835 290.326 121.195V121.195C284.242 123.556 277.482 120.504 275.228 114.38L240.357 19.6367C238.103 13.5124 241.208 6.63417 247.292 4.27381V4.27381Z" fill="white"/>
<rect width="160.349" height="21.711" rx="10.8555" transform="matrix(-0.137692 0.990475 -0.989434 -0.144983 259.64 6.04028)" fill="white"/>
</svg>
